<svg version="1.1" xmlns="http://www.w3.org/2000/svg" xmlns:xlink="http://www.w3.org/1999/xlink" width="256px" height="256px" viewBox="0,0,256,256"><g fill="none" fill-rule="nonzero" stroke="none" stroke-width="1" stroke-linecap="butt" stroke-linejoin="miter" stroke-miterlimit="10" stroke-dasharray="" stroke-dashoffset="0" font-family="none" font-weight="none" font-size="none" text-anchor="none" style="mix-blend-mode: normal"><g><path d="M170.266,4h-84.532l-59.774,59.773v84.533l59.774,59.773h84.532l59.774,-59.773v-84.533z" fill="#f4efed"></path><path d="M220.04,158.306l10,-10v-84.533l-10,-10z" fill="#d6d1cf"></path><path d="M35.96,53.773l-10,10v84.533l10,10z" fill="#ffffff"></path><circle cx="116.48" cy="191.052" r="11.519" fill="#ff4397"></circle><circle cx="1.29901" cy="215.99764" transform="rotate(-45.001)" r="11.519" fill="#ff4397"></circle><circle cx="186.048" cy="163.331" r="11.519" fill="#ff4397"></circle><circle cx="28.18428" cy="172.97148" transform="rotate(-13.344)" r="11.519" fill="#ff4397"></circle><ellipse cx="27.07541" cy="122.73495" transform="rotate(-9.213)" rx="11.52" ry="11.519" fill="#ff4397"></ellipse><circle cx="139.519" cy="191.052" r="11.519" fill="#7bac51"></circle><circle cx="42.16946" cy="144.60742" transform="rotate(-15.312)" r="11.519" fill="#7bac51"></circle><circle cx="-28.29824" cy="209.31101" transform="rotate(-45.001)" r="11.519" fill="#7bac51"></circle><circle cx="162.558" cy="191.052" r="11.519" fill="#fcc24c"></circle><circle cx="93.442" cy="191.052" r="11.519" fill="#fcc24c"></circle><circle cx="98.24" cy="157.328" r="11.519" fill="#fcc24c"></circle><circle cx="67.30152" cy="91.082" transform="rotate(-11.986)" r="11.519" fill="#fcc24c"></circle><path d="M162.559,204.571c-7.455,0 -13.52,-6.065 -13.52,-13.52c0,-7.455 6.064,-13.52 13.52,-13.52c7.455,0 13.52,6.065 13.52,13.52c-0.001,7.455 -6.065,13.52 -13.52,13.52zM162.559,181.532c-5.249,0 -9.52,4.271 -9.52,9.52c0,5.249 4.271,9.52 9.52,9.52c5.249,0 9.52,-4.271 9.52,-9.52c-0.001,-5.249 -4.271,-9.52 -9.52,-9.52z" fill="#690589"></path><path d="M170.266,210.079h-84.533c-0.53,0 -1.039,-0.211 -1.414,-0.586l-59.772,-59.773c-0.375,-0.375 -0.586,-0.884 -0.586,-1.414v-84.533c0,-0.53 0.211,-1.039 0.586,-1.414l59.772,-59.773c0.375,-0.375 0.884,-0.586 1.414,-0.586h84.532c0.53,0 1.039,0.211 1.414,0.586l59.773,59.773c0.375,0.375 0.586,0.884 0.586,1.414v84.532c0,0.53 -0.211,1.039 -0.586,1.414l-59.773,59.773c-0.374,0.376 -0.883,0.587 -1.413,0.587zM86.561,206.079h82.876l58.602,-58.602v-82.875l-58.601,-58.602h-82.877l-58.6,58.602v82.875z" fill="#690589"></path><path d="M33.961,91.441c-1.104,0 -2,-0.896 -2,-2v-12c0,-1.104 0.896,-2 2,-2c1.104,0 2,0.896 2,2v12c0,1.104 -0.896,2 -2,2z" fill="#690589"></path><path d="M93.441,204.571c-7.455,0 -13.52,-6.065 -13.52,-13.52c0,-7.455 6.064,-13.52 13.52,-13.52c7.456,0 13.52,6.065 13.52,13.52c0,7.455 -6.065,13.52 -13.52,13.52zM93.441,181.532c-5.249,0 -9.52,4.271 -9.52,9.52c0,5.249 4.271,9.52 9.52,9.52c5.249,0 9.52,-4.271 9.52,-9.52c0,-5.249 -4.271,-9.52 -9.52,-9.52z" fill="#690589"></path><path d="M116.48,204.571c-7.455,0 -13.52,-6.065 -13.52,-13.52c0,-7.455 6.064,-13.52 13.52,-13.52c7.455,0 13.52,6.065 13.52,13.52c0,7.455 -6.064,13.52 -13.52,13.52zM116.48,181.532c-5.249,0 -9.52,4.271 -9.52,9.52c0,5.249 4.271,9.52 9.52,9.52c5.249,0 9.52,-4.271 9.52,-9.52c0,-5.249 -4.271,-9.52 -9.52,-9.52z" fill="#690589"></path><path d="M139.52,204.571c-7.455,0 -13.52,-6.065 -13.52,-13.52c0,-7.455 6.064,-13.52 13.52,-13.52c7.455,0 13.52,6.065 13.52,13.52c-0.001,7.455 -6.065,13.52 -13.52,13.52zM139.52,181.532c-5.249,0 -9.52,4.271 -9.52,9.52c0,5.249 4.27,9.52 9.52,9.52c5.249,0 9.52,-4.271 9.52,-9.52c-0.001,-5.249 -4.271,-9.52 -9.52,-9.52z" fill="#690589"></path><path d="M98.24,170.847c-7.455,0 -13.52,-6.065 -13.52,-13.52c0,-7.455 6.064,-13.52 13.52,-13.52c7.455,0 13.52,6.065 13.52,13.52c0,7.455 -6.065,13.52 -13.52,13.52zM98.24,147.808c-5.249,0 -9.52,4.27 -9.52,9.52c0,5.249 4.271,9.52 9.52,9.52c5.249,0 9.52,-4.27 9.52,-9.52c0,-5.249 -4.271,-9.52 -9.52,-9.52z" fill="#690589"></path><path d="M153.657,165.331c-7.455,0 -13.52,-6.065 -13.52,-13.52c0,-7.455 6.064,-13.52 13.52,-13.52c7.455,0 13.52,6.065 13.52,13.52c0,7.456 -6.065,13.52 -13.52,13.52zM153.657,142.292c-5.249,0 -9.52,4.271 -9.52,9.52c0,5.249 4.271,9.52 9.52,9.52c5.249,0 9.52,-4.27 9.52,-9.52c0,-5.249 -4.271,-9.52 -9.52,-9.52z" fill="#690589"></path><path d="M183.177,246.912h-110.354c-1.641,0 -3.173,-0.816 -4.09,-2.177c-0.916,-1.361 -1.096,-3.088 -0.479,-4.608l55.177,-135.941c0.755,-1.86 2.562,-3.077 4.569,-3.077c2.007,0 3.814,1.217 4.569,3.077l55.177,135.941c0.617,1.52 0.437,3.248 -0.479,4.608c-0.916,1.361 -2.449,2.177 -4.09,2.177zM80.146,237.05h95.708l-47.854,-117.899z" fill="#ff4397"></path><path d="M183.177,248.912h-110.355c-2.309,0 -4.457,-1.143 -5.748,-3.06c-1.291,-1.917 -1.542,-4.339 -0.674,-6.478l55.177,-135.941c1.068,-2.627 3.589,-4.325 6.423,-4.325c2.834,0 5.355,1.697 6.422,4.324l55.178,135.943c0.868,2.139 0.617,4.561 -0.673,6.477c-1.292,1.917 -3.441,3.06 -5.75,3.06zM128,103.108c-1.198,0 -2.265,0.718 -2.717,1.83l-55.176,135.94c-0.368,0.905 -0.262,1.929 0.284,2.74c0.546,0.81 1.455,1.294 2.431,1.294h110.355c0.977,0 1.886,-0.484 2.433,-1.295c0.545,-0.81 0.651,-1.833 0.283,-2.738l-55.177,-135.942c-0.451,-1.11 -1.518,-1.829 -2.716,-1.829zM175.854,239.05h-95.708c-0.665,0 -1.287,-0.331 -1.659,-0.883c-0.371,-0.552 -0.444,-1.253 -0.194,-1.869l47.854,-117.899c0.307,-0.754 1.039,-1.248 1.854,-1.248c0.815,0 1.547,0.494 1.854,1.248l47.854,117.899c0.25,0.616 0.177,1.317 -0.194,1.869c-0.374,0.552 -0.996,0.883 -1.661,0.883zM83.117,235.05h89.766l-44.883,-110.581z" fill="#690589"></path><path d="M78.861,141.855c-7.455,0 -13.52,-6.065 -13.52,-13.52c0,-7.455 6.064,-13.52 13.52,-13.52c7.455,0 13.52,6.065 13.52,13.52c0,7.455 -6.065,13.52 -13.52,13.52zM78.861,118.815c-5.249,0 -9.52,4.271 -9.52,9.52c0,5.249 4.271,9.52 9.52,9.52c5.249,0 9.52,-4.271 9.52,-9.52c0,-5.249 -4.271,-9.52 -9.52,-9.52z" fill="#690589"></path><path d="M128,181.532c-7.455,0 -13.52,-6.065 -13.52,-13.52c0,-7.455 6.064,-13.52 13.52,-13.52c7.455,0 13.52,6.065 13.52,13.52c0,7.455 -6.065,13.52 -13.52,13.52zM128,158.493c-5.249,0 -9.52,4.271 -9.52,9.52c0,5.249 4.271,9.52 9.52,9.52c5.249,0 9.52,-4.27 9.52,-9.52c0,-5.249 -4.271,-9.52 -9.52,-9.52z" fill="#690589"></path><path d="M186.048,176.851c-7.455,0 -13.52,-6.065 -13.52,-13.52c0,-7.454 6.064,-13.52 13.52,-13.52c7.455,0 13.52,6.065 13.52,13.52c-0.001,7.455 -6.065,13.52 -13.52,13.52zM186.048,153.812c-5.249,0 -9.52,4.271 -9.52,9.52c0,5.249 4.27,9.52 9.52,9.52c5.249,0 9.52,-4.271 9.52,-9.52c-0.001,-5.249 -4.271,-9.52 -9.52,-9.52z" fill="#690589"></path><path d="M84.749,88.639c-7.455,0 -13.52,-6.065 -13.52,-13.52c0,-7.454 6.064,-13.519 13.52,-13.519c7.454,0 13.519,6.064 13.519,13.519c0,7.455 -6.065,13.52 -13.519,13.52zM84.749,65.6c-5.249,0 -9.52,4.27 -9.52,9.519c0,5.249 4.271,9.52 9.52,9.52c5.249,0 9.519,-4.271 9.519,-9.52c0,-5.249 -4.27,-9.519 -9.519,-9.519z" fill="#690589"></path><path d="M67.342,175.314c-7.455,0 -13.519,-6.065 -13.519,-13.52c0,-7.454 6.064,-13.52 13.519,-13.52c7.455,0 13.52,6.065 13.52,13.52c-0.001,7.455 -6.065,13.52 -13.52,13.52zM67.342,152.274c-5.249,0 -9.519,4.271 -9.519,9.52c0,5.249 4.271,9.52 9.519,9.52c5.248,0 9.52,-4.271 9.52,-9.52c-0.001,-5.249 -4.271,-9.52 -9.52,-9.52z" fill="#690589"></path><path d="M46.374,130.335c-7.455,0 -13.52,-6.065 -13.52,-13.52c0,-7.455 6.064,-13.519 13.52,-13.519c7.455,0 13.52,6.064 13.52,13.519c0,7.455 -6.065,13.52 -13.52,13.52zM46.374,107.296c-5.249,0 -9.52,4.27 -9.52,9.519c0,5.249 4.271,9.52 9.52,9.52c5.249,0 9.52,-4.27 9.52,-9.52c0,-5.249 -4.271,-9.519 -9.52,-9.519z" fill="#690589"></path><path d="M195.177,231.961h-134.354c-2.761,0 -5,2.239 -5,5v15.039h144.355v-15.039c-0.001,-2.761 -2.239,-5 -5.001,-5z" fill="#7bac51"></path><path d="M195.177,231.961h-10c2.761,0 5,2.239 5,5v15.039h10v-15.039c0,-2.761 -2.238,-5 -5,-5z" fill="#5d8e33"></path><path d="M60.823,231.961h10c-2.761,0 -5,2.239 -5,5v15.039h-10v-15.039c0,-2.761 2.238,-5 5,-5z" fill="#99ca6f"></path><path d="M200.178,254h-144.356c-1.104,0 -2,-0.895 -2,-2v-15.039c0,-3.86 3.141,-7 7,-7h134.355c3.859,0 7,3.14 7,7v15.039c0.001,1.105 -0.895,2 -1.999,2zM57.822,250h140.355v-13.039c0,-1.654 -1.346,-3 -3,-3h-134.355c-1.654,0 -3,1.346 -3,3z" fill="#690589"></path><path d="M139.355,78.625h-22.711l-16.059,16.059v22.711l16.059,16.059h22.711l16.06,-16.059v-22.711z" fill="#fcc24c"></path><path d="M139.356,78.625h-6l16.059,16.059v22.711l-16.059,16.059h6l16.059,-16.059v-22.711z" fill="#dea42e"></path><path d="M116.644,133.454h6l-16.059,-16.059v-22.711l16.059,-16.059h-6l-16.059,16.059v22.711z" fill="#fce06a"></path><path d="M139.355,135.454h-22.711c-0.53,0 -1.039,-0.211 -1.414,-0.586l-16.06,-16.059c-0.375,-0.375 -0.586,-0.884 -0.586,-1.414v-22.711c0,-0.53 0.211,-1.039 0.586,-1.414l16.06,-16.06c0.375,-0.375 0.884,-0.586 1.414,-0.586h22.711c0.53,0 1.039,0.211 1.414,0.586l16.06,16.06c0.375,0.375 0.586,0.884 0.586,1.414v22.711c0,0.53 -0.211,1.039 -0.586,1.414l-16.06,16.059c-0.374,0.375 -0.883,0.586 -1.414,0.586zM117.473,131.454h21.055l14.888,-14.888v-21.053l-14.888,-14.888h-21.055l-14.888,14.888v21.054z" fill="#690589"></path><circle cx="128" cy="106.04" r="14.137" fill="#ff4397"></circle><path d="M128,122.177c-8.898,0 -16.138,-7.239 -16.138,-16.137c0,-8.898 7.239,-16.137 16.138,-16.137c8.899,0 16.138,7.239 16.138,16.137c0,8.898 -7.24,16.137 -16.138,16.137zM128,93.902c-6.692,0 -12.138,5.445 -12.138,12.137c0,6.692 5.445,12.137 12.138,12.137c6.693,0 12.138,-5.445 12.138,-12.137c0,-6.692 -5.446,-12.137 -12.138,-12.137z" fill="#690589"></path></g></g></svg>